<svg xmlns="http://www.w3.org/2000/svg" width="35" height="35" viewBox="0 0 35 35">
  <defs>
    <style>
      .cls-1 {
        fill: #fff;
        fill-rule: evenodd;
      }
    </style>
  </defs>
  <path id="Magic_wand" data-name="Magic wand" class="cls-1" d="M22.95,22.088a1.134,1.134,0,0,1-.166-0.013,1.088,1.088,0,0,1-.852-0.7l-2.159-5.964-5.931-2.141a1.1,1.1,0,0,1-.3-1.888L18.5,7.467,18.69,1.122a1.1,1.1,0,0,1,.59-0.939,1.072,1.072,0,0,1,1.1.066l5.227,3.546,6.048-1.778a1.073,1.073,0,0,1,1.068.274A1.1,1.1,0,0,1,33,3.365l-1.733,6.1,3.482,5.245a1.1,1.1,0,0,1,.072,1.108,1.084,1.084,0,0,1-.929.6l-6.231.224-3.855,5.021A1.081,1.081,0,0,1,22.95,22.088ZM16.423,11.877l4.56,1.647a1.086,1.086,0,0,1,.653.653l1.659,4.583L26.258,14.9a1.079,1.079,0,0,1,.82-0.423l4.841-.173L29.19,10.275a1.1,1.1,0,0,1-.147-0.916l1.333-4.691-4.65,1.368a1.084,1.084,0,0,1-.91-0.143L20.8,3.167,20.655,8.045a1.1,1.1,0,0,1-.416.827ZM1.19,35a1.077,1.077,0,0,1-.767-0.32,1.1,1.1,0,0,1,0-1.544L18.4,15.025a1.077,1.077,0,0,1,1.533,0,1.1,1.1,0,0,1,0,1.544L1.956,34.68A1.077,1.077,0,0,1,1.19,35Z"/>
</svg>
