<svg xmlns="http://www.w3.org/2000/svg" width="42" height="34" viewBox="0 0 42 34">
  <defs>
    <style>
      .cls-1 {
        fill: #fff;
        fill-rule: evenodd;
      }
    </style>
  </defs>
  <path id="monitor.svg" class="cls-1" d="M39.375,2.614V24.842H2.625V2.614h36.75m0-2.615H2.625A2.628,2.628,0,0,0,0,2.614V24.842a2.628,2.628,0,0,0,2.625,2.615h36.75A2.628,2.628,0,0,0,42,24.842V2.614A2.628,2.628,0,0,0,39.375,0h0ZM22.313,26.157v5.228h6.563a1.307,1.307,0,1,1,0,2.614H13.125a1.307,1.307,0,1,1,0-2.614h6.562V26.157h2.625Z"/>
</svg>
