<svg xmlns="http://www.w3.org/2000/svg" width="35" height="35" viewBox="0 0 35 35">
  <defs>
    <style>
      .cls-1 {
        fill: #fff;
        fill-rule: evenodd;
      }
    </style>
  </defs>
  <path id="params" class="cls-1" d="M8.75,6.586v-3.3a3.281,3.281,0,0,0-6.563,0v3.3a5.42,5.42,0,0,0,0,8.7V31.718a3.281,3.281,0,1,0,6.563,0V15.287A5.42,5.42,0,0,0,8.75,6.586Zm-4.375-3.3a1.094,1.094,0,1,1,2.187,0v2.3a5.552,5.552,0,0,0-2.187,0v-2.3ZM6.562,31.718a1.094,1.094,0,1,1-2.187,0V16.295a5.449,5.449,0,0,0,2.187,0V31.718ZM8.6,11.856c-0.017.058-.033,0.115-0.053,0.173a3.223,3.223,0,0,1-.413.806c0,0.006-.011.011-0.015,0.017a3.28,3.28,0,0,1-.674.686l-0.011.009a3.27,3.27,0,0,1-3.935,0l-0.011-.009a3.278,3.278,0,0,1-.674-0.686c0-.006-0.011-0.011-0.015-0.017a3.223,3.223,0,0,1-.413-0.806c-0.02-.058-0.036-0.115-0.053-0.173a2.942,2.942,0,0,1,0-1.839c0.017-.058.033-0.115,0.053-0.171A3.264,3.264,0,0,1,2.8,9.039c0-.007.011-0.011,0.015-0.017a3.321,3.321,0,0,1,.674-0.686A0.1,0.1,0,0,0,3.5,8.327a3.378,3.378,0,0,1,.874-0.47,3.274,3.274,0,0,1,1.094-.2,3.273,3.273,0,0,1,1.094.2,3.378,3.378,0,0,1,.874.47,0.1,0.1,0,0,0,.011.009,3.323,3.323,0,0,1,.674.686c0,0.006.011,0.01,0.015,0.017a3.264,3.264,0,0,1,.413.807C8.569,9.9,8.585,9.959,8.6,10.017A2.942,2.942,0,0,1,8.6,11.856Zm24.21-5.27v-3.3a3.281,3.281,0,1,0-6.562,0v3.3a5.42,5.42,0,0,0,0,8.7V31.718a3.281,3.281,0,1,0,6.562,0V15.287A5.42,5.42,0,0,0,32.812,6.586Zm-4.375-3.3a1.094,1.094,0,1,1,2.188,0v2.3a5.552,5.552,0,0,0-2.187,0v-2.3Zm2.188,28.437a1.094,1.094,0,1,1-2.187,0V16.295a5.449,5.449,0,0,0,2.188,0V31.718Zm2.04-19.862c-0.017.058-.033,0.115-0.053,0.173a3.228,3.228,0,0,1-.413.806c0,0.006-.011.011-0.015,0.017a3.282,3.282,0,0,1-.674.686l-0.011.009a3.27,3.27,0,0,1-3.935,0l-0.011-.009a3.276,3.276,0,0,1-.674-0.686c0-.006-0.011-0.011-0.015-0.017a3.221,3.221,0,0,1-.413-0.806c-0.02-.058-0.036-0.115-0.053-0.173a2.941,2.941,0,0,1,0-1.839c0.017-.058.033-0.115,0.053-0.171a3.262,3.262,0,0,1,.413-0.807c0-.007.011-0.011,0.015-0.017a3.318,3.318,0,0,1,.674-0.686,0.1,0.1,0,0,0,.011-0.009,3.377,3.377,0,0,1,.874-0.47,3.089,3.089,0,0,1,2.188,0,3.377,3.377,0,0,1,.874.47,0.1,0.1,0,0,0,.011.009,3.324,3.324,0,0,1,.674.686c0,0.006.011,0.01,0.015,0.017a3.27,3.27,0,0,1,.413.807c0.02,0.056.036,0.113,0.053,0.171A2.945,2.945,0,0,1,32.665,11.856ZM20.781,19.711V3.281a3.281,3.281,0,0,0-6.563,0V19.711a5.42,5.42,0,0,0,0,8.7v3.306a3.281,3.281,0,1,0,6.563,0V28.412A5.42,5.42,0,0,0,20.781,19.711ZM16.406,3.281a1.094,1.094,0,1,1,2.187,0V18.7a5.532,5.532,0,0,0-2.187,0V3.281Zm2.187,28.437a1.094,1.094,0,1,1-2.187,0v-2.3a5.449,5.449,0,0,0,2.187,0v2.3Zm2.04-6.737c-0.017.058-.033,0.115-0.053,0.173a3.237,3.237,0,0,1-.413.806c0,0.006-.011.01-0.015,0.017a3.279,3.279,0,0,1-.674.686l-0.011.009a3.259,3.259,0,0,1-.874.47,3.048,3.048,0,0,1-2.187,0,3.263,3.263,0,0,1-.874-0.47l-0.011-.009a3.28,3.28,0,0,1-.674-0.686c0-.007-0.011-0.011-0.015-0.017a3.244,3.244,0,0,1-.413-0.806c-0.02-.058-0.036-0.115-0.053-0.173a2.942,2.942,0,0,1,0-1.839c0.017-.058.033-0.116,0.053-0.171a3.29,3.29,0,0,1,.413-0.808c0-.006.011-0.01,0.015-0.017a3.32,3.32,0,0,1,.674-0.686,0.072,0.072,0,0,0,.011-0.009,3.367,3.367,0,0,1,.874-0.47,3.078,3.078,0,0,1,2.187,0,3.364,3.364,0,0,1,.874.47,0.074,0.074,0,0,0,.011.009,3.32,3.32,0,0,1,.674.686c0,0.006.011,0.011,0.015,0.017a3.283,3.283,0,0,1,.413.808c0.02,0.055.036,0.113,0.053,0.171A2.94,2.94,0,0,1,20.634,24.981Z"/>
</svg>
