<svg xmlns="http://www.w3.org/2000/svg" width="40" height="39" viewBox="0 0 40 39">
  <defs>
    <style>
      .cls-1 {
        fill: #fff;
        fill-rule: evenodd;
      }
    </style>
  </defs>
  <path id="plane.svg" class="cls-1" d="M35.888,2.447h0a2.39,2.39,0,0,1,.83.129c0.177,0.468.413,2.143-1.328,3.875l-8.1,8.053-0.781.776,0.064,1.1c0.135,2.292.384,6.4,0.6,9.922,0.19,3.135.37,6.1,0.382,6.347a0.445,0.445,0,0,1-.154.408c-0.363.439-1.04,1.182-1.611,1.8-0.885-2.372-2.745-7.381-3.772-10.185L20.7,21.06l-2.73,2.716-5.02,4.8-0.7.694-0.022.982c-0.017.784-.013,2.19-0.011,3.43,0,0.863,0,1.649,0,2.082a0.894,0.894,0,0,1,.151.072c-0.107-.171-0.222-0.354-0.344-0.546-1.013-1.606-2.413-3.827-2.841-4.519l-0.312-.507-0.513-.309c-1.866-1.12-3.932-2.414-5.193-3.222a0.391,0.391,0,0,1,.108.091H3.355c0.4,0,1.052.009,1.787,0.02,0.961,0.013,2.052.029,2.887,0.029,0.319,0,.6,0,0.832-0.007l0.988-.023,0.7-.694,4.834-4.959,2.721-2.7-3.611-1.321c-2.714-.993-7.912-2.924-10.343-3.831,0.623-.572,1.375-1.25,1.814-1.611a0.546,0.546,0,0,1,.284-0.151l0.087,0c0.271,0.013,3.64.232,6.9,0.443,3.457,0.224,7.359.478,9.578,0.618L23.915,12.7l0.786-.781,8.1-8.05a4.4,4.4,0,0,1,3.092-1.424m0-2.447a6.872,6.872,0,0,0-4.832,2.141l-8.1,8.051C18.4,9.9,6.722,9.136,6.433,9.128c-0.052,0-.115,0-0.187,0a2.817,2.817,0,0,0-1.85.712c-0.909.748-2.806,2.522-2.806,2.522A1.953,1.953,0,0,0,.955,13.91a1.444,1.444,0,0,0,1,1.215c0.482,0.187,8.146,3.039,11.685,4.334L8.808,24.419c-0.214,0-.479.007-0.778,0.007-1.474,0-3.759-.048-4.674-0.048-0.121,0-.219,0-0.287,0-0.279.009-.855-0.127-2.377,1.138l-0.108.1A1.769,1.769,0,0,0,.01,26.823a1.324,1.324,0,0,0,.521,1.11C0.8,28.149,4.254,30.349,7.086,32.05c0.679,1.1,3.8,6.04,3.967,6.307A1.279,1.279,0,0,0,12.146,39h0.038a2.023,2.023,0,0,0,1.373-.663c1.288-1.5,1.11-2.119,1.116-2.379,0.02-.817-0.014-4.279.016-5.652l5.02-4.8c1.283,3.506,4.088,11.048,4.275,11.529a1.449,1.449,0,0,0,1.224.994,1.5,1.5,0,0,0,.16.009,2.027,2.027,0,0,0,1.4-.637s1.778-1.877,2.534-2.789a2.792,2.792,0,0,0,.712-2.059C30.009,32.3,29.3,20.745,29.032,16.234l8.1-8.053C40,5.326,39.544,1.885,38.478.827A3.8,3.8,0,0,0,35.888,0h0Z"/>
</svg>
